# xmcd CD database file
#
# Track frame offsets:
#	150
#	27685
#	44842
#	60975
#	72595
#	90550
#	101305
#	113050
#	134092
#	146990
#	164562
#	193270
#	211680
#	227207
#	246332
#	260822
#	273255
#	289690
#	308340
#
# Disc length: 4334 seconds
#
# Revision: 0
# Processed by: cddbd v1.5.2PL0 Copyright (c) Steve Scherf et al.
# Submitted via: CDex 1.50
#
DISCID=2b10ec13
DTITLE=Richard Huet - 19 grands succes
DYEAR=1996
DGENRE=Country
TTITLE0=Amen (Medley Gospel)
TTITLE1=Je crois en l'amour
TTITLE2=Combien de fois je t'ai blessee
TTITLE3=Si tu veux
TTITLE4=Medley Country
TTITLE5=Je crois en toi
TTITLE6=Apres
TTITLE7=Isabeau - Les immortelles
TTITLE8=Nous ne cesserons jamais de t'aimer
TTITLE9=Pour une larme, pour un sourire
TTITLE10=Ce soir, il fera chaud
TTITLE11=California Blue
TTITLE12=Aujourd'hui j'ai recommence a t'aimer
TTITLE13=Ecoute les enfants
TTITLE14=Midnight Blue en Irlande
TTITLE15=Mon amour, reviens
TTITLE16=Mon Paradis
TTITLE17=Le mur de Fermont
TTITLE18=La Baie James
EXTD=YEAR: 1996
EXTT0=
EXTT1=
EXTT2=
EXTT3=
EXTT4=
EXTT5=
EXTT6=
EXTT7=
EXTT8=
EXTT9=
EXTT10=
EXTT11=
EXTT12=
EXTT13=
EXTT14=
EXTT15=
EXTT16=
EXTT17=
EXTT18=
PLAYORDER=
